<svg id="Capa_1" data-name="Capa 1" xmlns="http://www.w3.org/2000/svg" xmlns:xlink="http://www.w3.org/1999/xlink" viewBox="0 0 74.22 27.33"><defs><style>.cls-1{fill:none;}.cls-2{clip-path:url(#clip-path);}.cls-3{clip-path:url(#clip-path-2);}.cls-4{fill:#05347a;}.cls-5{clip-path:url(#clip-path-3);}.cls-6{clip-path:url(#clip-path-4);}.cls-7{fill:#d7172f;}.cls-8{clip-path:url(#clip-path-5);}.cls-9{clip-path:url(#clip-path-6);}.cls-10{clip-path:url(#clip-path-7);}.cls-11{clip-path:url(#clip-path-8);}.cls-12{clip-path:url(#clip-path-9);}.cls-13{clip-path:url(#clip-path-10);}.cls-14{clip-path:url(#clip-path-11);}</style><clipPath id="clip-path" transform="translate(0.26 -1.34)"><rect class="cls-1" x="19.38" y="6.89" width="5.48" height="5.45"/></clipPath><clipPath id="clip-path-2" transform="translate(0.26 -1.34)"><polygon class="cls-1" points="24.77 6.91 24.77 12.23 19.46 9.38 24.77 6.91"/></clipPath><clipPath id="clip-path-3" transform="translate(0.26 -1.34)"><rect class="cls-1" x="0.36" y="15.76" width="15.5" height="12.26"/></clipPath><clipPath id="clip-path-4" transform="translate(0.26 -1.34)"><polygon class="cls-1" points="0.45 18.33 5.29 15.8 15.82 20.75 0.45 27.94 0.45 18.33"/></clipPath><clipPath id="clip-path-5" transform="translate(0.26 -1.34)"><rect class="cls-1" x="25.93" y="6.8" width="2.21" height="16.7"/></clipPath><clipPath id="clip-path-6" transform="translate(0.26 -1.34)"><rect class="cls-1" x="0.36" y="1.98" width="17.26" height="13.43"/></clipPath><clipPath id="clip-path-7" transform="translate(0.26 -1.34)"><polygon class="cls-1" points="0.45 2.07 0.45 12.67 6.29 15.35 17.53 10.25 0.45 2.07"/></clipPath><clipPath id="clip-path-8" transform="translate(0.26 -1.34)"><rect class="cls-1" x="6.25" y="10.2" width="18.6" height="13.67"/></clipPath><clipPath id="clip-path-9" transform="translate(0.26 -1.34)"><polygon class="cls-1" points="6.29 15.35 24.77 23.82 24.77 13.72 17.53 10.25 6.29 15.35"/></clipPath><clipPath id="clip-path-10" transform="translate(0.26 -1.34)"><rect class="cls-1" x="29.87" y="6.69" width="10.24" height="16.88"/></clipPath><clipPath id="clip-path-11" transform="translate(0.26 -1.34)"><polygon class="cls-1" points="39.15 6.74 36.48 6.74 29.88 14.05 29.88 15.39 37.1 23.55 40.1 23.55 32.05 14.64 39.15 6.74"/></clipPath></defs><title>favicon</title><g class="cls-2"><g class="cls-3"><path class="cls-4" d="M-.26,1.34H28.89V28.68H-.26Z" transform="translate(0.26 -1.34)"/></g></g><g class="cls-5"><g class="cls-6"><path class="cls-7" d="M-.26,1.34H28.89V28.68H-.26Z" transform="translate(0.26 -1.34)"/></g></g><g class="cls-8"><path class="cls-7" d="M-.26,1.34H28.89V28.68H-.26Z" transform="translate(0.26 -1.34)"/></g><g class="cls-9"><g class="cls-10"><path class="cls-4" d="M-.26,1.34H28.89V28.68H-.26Z" transform="translate(0.26 -1.34)"/></g></g><g class="cls-11"><g class="cls-12"><path class="cls-4" d="M-.26,1.34H28.89V28.68H-.26Z" transform="translate(0.26 -1.34)"/></g></g><g class="cls-13"><g class="cls-14"><path class="cls-4" d="M29.17,6H74V24.28H29.17Z" transform="translate(0.26 -1.34)"/></g></g></svg>